<?xml version="1.0" standalone="no"?>
<!DOCTYPE svg PUBLIC "-//W3C//DTD SVG 20010904//EN"
 "http://www.w3.org/TR/2001/REC-SVG-20010904/DTD/svg10.dtd">
<svg version="1.0" xmlns="http://www.w3.org/2000/svg"
 width="288.000000pt" height="288.000000pt" viewBox="0 0 288.000000 288.000000"
 preserveAspectRatio="xMidYMid meet">
<metadata>
Created by potrace 1.14, written by Peter Selinger 2001-2017
</metadata>
<g transform="translate(0.000000,288.000000) scale(0.100000,-0.100000)"
fill="#000000" stroke="none">
<path d="M0 2173 c0 -673 1 -707 18 -686 9 12 32 34 51 48 50 36 94 33 156
-11 88 -63 177 -101 248 -106 29 -2 43 4 64 24 25 26 26 28 13 75 -7 26 -22
59 -32 72 -13 17 -18 41 -18 87 0 37 -5 66 -12 70 -8 5 -6 11 7 20 13 10 16
20 10 41 -3 15 -12 31 -18 35 -9 6 -9 8 1 8 19 0 14 31 -13 75 -14 22 -25 47
-25 57 0 9 -15 42 -33 75 -18 32 -39 79 -46 105 -8 26 -19 53 -27 59 -7 6 -11
16 -8 24 3 7 -2 30 -12 51 -26 61 -54 156 -54 185 0 85 60 36 272 -223 150
-183 268 -310 310 -336 34 -20 41 -38 26 -65 -7 -12 -13 -30 -14 -39 -1 -14 4
-16 25 -11 38 9 41 12 41 39 0 13 4 24 9 24 5 0 16 3 25 6 10 4 21 -5 33 -28
16 -30 18 -31 21 -11 2 12 -10 39 -28 64 -23 32 -27 45 -18 51 8 5 19 0 30
-12 10 -12 19 -16 23 -10 3 5 14 10 24 10 10 0 25 9 32 20 8 10 21 20 29 22 8
2 19 12 25 23 7 14 25 22 55 26 53 7 234 54 270 70 27 12 111 22 172 20 21 0
50 4 64 9 17 7 39 7 65 0 38 -11 41 -9 100 37 100 78 123 94 137 88 16 -6 91
40 99 62 4 9 -16 57 -45 115 -50 95 -52 102 -52 178 0 84 -8 116 -43 167 -34
51 -74 46 -221 -27 -67 -33 -134 -72 -150 -85 -16 -14 -34 -25 -40 -25 -6 0
-21 -3 -32 -6 -20 -5 -23 -1 -29 44 -4 30 -14 57 -26 68 -10 9 -19 23 -19 29
0 7 -7 15 -15 19 -8 3 -15 11 -15 19 0 7 -6 25 -13 40 l-12 27 -692 0 -693 0
0 -707z m404 601 c17 -6 22 -34 7 -34 -5 0 -19 9 -32 20 -19 15 -21 19 -7 20
9 0 23 -3 32 -6z m173 -39 c3 -9 3 -19 -1 -22 -7 -7 -36 16 -36 28 0 15 30 10
37 -6z m-157 -113 c5 -44 7 -47 32 -44 37 4 44 -14 13 -34 -14 -9 -25 -23 -25
-30 0 -8 -5 -14 -10 -14 -18 0 -86 38 -101 56 -13 16 -12 16 19 0 51 -26 66
-9 57 69 -3 33 -3 56 1 52 5 -4 11 -29 14 -55z"/>
<path d="M2425 2340 c-4 -12 -5 -24 -2 -27 3 -2 8 5 12 17 4 12 5 24 2 27 -3
2 -8 -5 -12 -17z"/>
<path d="M2296 2274 c-9 -8 -16 -22 -16 -30 0 -8 -3 -14 -8 -14 -4 0 -16 -17
-27 -37 -29 -56 -112 -141 -179 -185 -33 -21 -63 -38 -68 -38 -5 0 -8 12 -6
28 2 23 8 27 33 27 34 1 82 33 114 76 31 41 12 58 -60 57 -55 -2 -74 -12 -94
-52 -15 -29 -69 -34 -91 -8 -17 20 -17 20 -62 -4 -26 -14 -54 -32 -63 -40 -16
-15 -20 -15 -41 0 -12 9 -31 16 -41 16 -17 0 -19 -7 -16 -72 4 -69 3 -73 -18
-76 -31 -5 -35 -27 -16 -83 12 -32 23 -48 33 -46 13 2 15 -15 15 -106 0 -60
-3 -111 -7 -114 -5 -2 -8 -17 -8 -32 0 -17 -10 -37 -26 -52 l-27 -24 7 58 c5
47 3 57 -9 57 -22 0 -8 89 17 114 13 12 18 26 14 40 -3 11 -6 24 -6 29 0 4 -8
7 -19 7 -29 0 -38 19 -43 88 -5 66 -11 78 -43 84 -13 2 -20 -3 -23 -17 -4 -24
-34 -85 -42 -85 -12 0 -30 25 -30 41 0 9 -13 31 -30 49 -16 18 -30 36 -30 41
0 5 -5 9 -11 9 -7 0 -8 -14 -4 -39 5 -29 1 -49 -14 -80 -12 -23 -26 -41 -31
-41 -17 0 -11 -99 7 -128 10 -15 20 -29 24 -32 17 -13 39 -73 39 -104 0 -52
-18 -55 -59 -7 -20 23 -39 41 -43 41 -18 0 -7 -70 13 -89 13 -12 23 -37 27
-66 3 -33 9 -45 19 -43 8 2 39 -20 68 -49 54 -50 55 -53 55 -106 0 -38 5 -61
16 -72 9 -9 13 -23 10 -32 -4 -9 -1 -39 6 -65 10 -42 10 -53 -4 -76 -16 -25
-22 -27 -84 -27 -59 0 -69 3 -83 24 -9 13 -25 33 -36 46 -12 12 -26 46 -33 75
-7 30 -20 63 -30 73 -16 18 -16 20 12 42 25 20 28 27 23 61 -3 22 -13 86 -21
143 -12 84 -13 111 -3 142 6 22 18 39 24 39 14 0 16 22 7 58 -9 32 -29 27 -48
-13 -9 -19 -21 -37 -26 -40 -6 -3 -10 -17 -10 -30 0 -13 -4 -27 -10 -30 -5 -3
-10 -17 -10 -31 0 -14 -7 -41 -16 -62 -23 -55 -20 -118 11 -181 14 -29 24 -56
20 -59 -6 -7 -180 32 -243 55 -65 23 -76 14 -69 -56 2 -32 13 -73 22 -92 18
-34 71 -89 87 -89 5 0 7 -4 3 -9 -3 -6 -33 0 -70 15 -101 37 -109 30 -45 -38
22 -24 40 -48 40 -55 0 -6 9 -15 20 -18 12 -4 20 -15 20 -29 0 -15 14 -35 37
-55 31 -27 44 -31 92 -31 62 0 73 -5 90 -37 6 -13 18 -23 25 -23 8 0 20 -7 27
-16 10 -12 23 -14 50 -10 42 7 49 -3 45 -59 -1 -16 3 -36 8 -43 14 -19 5 -21
-44 -11 -69 15 -120 15 -120 0 0 -26 165 -36 180 -11 9 15 20 -10 20 -46 0
-13 3 -24 8 -24 4 0 7 -14 8 -30 1 -17 -3 -30 -7 -30 -5 0 -12 -18 -15 -40 -7
-45 -16 -48 -71 -25 -19 8 -52 15 -72 15 -29 0 -41 -7 -64 -35 -48 -60 -56
-106 -20 -119 10 -4 12 -10 6 -19 -13 -16 -23 -58 -13 -52 10 6 8 -110 -1
-120 -4 -3 -28 -8 -55 -11 -54 -5 -89 -24 -97 -53 -5 -19 -1 -20 115 -18 115
2 121 3 129 24 6 16 3 27 -7 38 -19 18 -17 22 65 102 42 41 52 56 43 65 -9 9
-16 7 -31 -6 -16 -15 -23 -15 -52 -4 l-32 14 37 37 c20 20 41 37 47 37 5 0 9
6 8 13 -6 52 45 83 80 48 11 -11 33 -24 48 -27 47 -12 113 -46 113 -59 0 -6
-13 -22 -29 -34 -15 -12 -37 -38 -47 -57 -16 -29 -17 -36 -5 -43 8 -5 20 -7
28 -4 10 4 13 -8 13 -50 0 -46 -3 -55 -20 -60 -11 -3 -20 -12 -20 -21 0 -14
39 -16 384 -16 l383 0 7 37 c3 21 6 81 6 134 0 106 -11 153 -82 339 -33 88
-39 113 -34 153 6 53 34 117 70 158 39 46 99 51 75 7 -9 -16 -7 -24 10 -39 12
-11 25 -18 30 -15 5 3 22 -1 39 -9 24 -12 43 -13 98 -5 84 12 86 12 102 1 11
-7 8 -17 -13 -51 -28 -45 -29 -50 -25 -136 1 -28 -3 -68 -10 -88 -12 -38 -10
-69 8 -138 6 -22 7 -77 2 -135 -4 -54 -6 -101 -4 -104 2 -4 20 -9 41 -13 21
-3 61 -10 88 -15 60 -12 145 -13 209 -5 l46 7 0 788 c0 434 -2 789 -5 789 -14
0 -43 -38 -47 -60 -2 -16 -9 -24 -18 -21 -36 10 -86 11 -100 1 -26 -18 9 -31
68 -27 l54 4 -7 -46 c-8 -51 -12 -61 -26 -61 -5 0 -9 16 -9 35 0 23 -5 35 -14
35 -7 0 -46 7 -85 16 -57 13 -71 20 -71 35 0 10 -13 25 -28 33 -53 27 -53 30
-42 206 6 90 15 185 20 212 7 37 6 58 -5 84 -22 54 -111 102 -219 119 -36 6
-38 8 -32 36 6 33 4 35 -18 13z m-425 -275 c-5 -14 -16 -31 -25 -38 -14 -11
-16 -11 -16 3 0 9 7 31 16 48 19 36 40 25 25 -13z m-51 -51 c0 -13 -23 -5 -28
10 -2 7 2 10 12 6 9 -3 16 -11 16 -16z m-3 -33 c0 -8 -4 -15 -9 -15 -4 0 -8 7
-8 15 0 8 4 15 8 15 5 0 9 -7 9 -15z m908 -406 c10 -15 -1 -23 -20 -15 -9 3
-13 10 -10 16 8 13 22 13 30 -1z m-1000 -128 c-3 -12 -10 -21 -15 -21 -5 0 -4
11 2 25 13 29 23 26 13 -4z m-125 -6 c0 -8 -4 -15 -10 -15 -5 0 -10 7 -10 15
0 8 5 15 10 15 6 0 10 -7 10 -15z m-624 -172 c-10 -10 -19 5 -10 18 6 11 8 11
12 0 2 -7 1 -15 -2 -18z m242 -249 c-2 -11 -12 -19 -23 -19 -27 0 -34 42 -8
47 24 6 36 -5 31 -28z m433 -726 c8 -7 20 -25 26 -39 10 -23 8 -30 -14 -54
-20 -21 -32 -26 -54 -21 -20 4 -29 2 -29 -8 0 -17 -41 -69 -48 -61 -4 3 -5 25
-3 48 3 47 35 107 57 107 9 0 13 4 9 9 -3 6 3 14 12 20 23 13 26 13 44 -1z"/>
<path d="M1266 1945 c-8 -23 4 -67 18 -62 14 5 14 69 0 74 -6 2 -14 -3 -18
-12z"/>
<path d="M1144 1907 c-7 -20 1 -47 16 -47 12 0 13 30 0 50 -8 12 -10 12 -16
-3z"/>
<path d="M1197 1803 c-11 -10 -8 -93 3 -93 6 0 10 6 10 14 0 8 5 16 10 18 6 2
8 17 4 36 -6 31 -14 39 -27 25z"/>
<path d="M554 1605 c-8 -19 19 -45 45 -45 27 0 26 11 -2 38 -27 26 -36 27 -43
7z"/>
<path d="M134 1522 c-21 -13 -32 -47 -44 -137 -7 -49 -17 -98 -22 -107 -4 -9
-15 -50 -23 -90 -9 -40 -22 -83 -30 -95 -9 -14 -15 -47 -15 -87 l0 -66 89 -72
c49 -40 107 -86 129 -102 22 -16 52 -50 66 -77 29 -52 68 -89 95 -89 10 0 21
-4 27 -9 5 -6 28 -13 52 -17 34 -5 43 -4 41 7 -2 8 2 24 9 37 7 12 11 26 8 31
-3 5 7 11 24 14 67 14 99 131 57 207 -11 19 -19 53 -19 75 0 22 -6 47 -14 56
-8 8 -16 29 -18 45 -8 60 -19 94 -30 94 -6 0 -22 9 -36 20 -21 17 -23 21 -10
30 10 6 11 10 3 10 -18 0 -16 35 2 50 13 11 13 16 -3 42 -9 16 -26 34 -37 40
-35 19 -165 119 -165 128 0 8 -103 70 -117 70 -5 0 -13 -4 -19 -8z"/>
<path d="M0 1363 c0 -21 3 -24 9 -14 5 8 7 20 4 28 -8 21 -13 15 -13 -14z"/>
<path d="M1345 1310 c-8 -13 4 -32 16 -25 12 8 12 35 0 35 -6 0 -13 -4 -16
-10z"/>
<path d="M0 736 c0 -22 6 -24 92 -36 51 -7 110 -19 132 -26 49 -18 56 -12 17
15 -59 43 -135 71 -188 71 -49 0 -53 -2 -53 -24z"/>
<path d="M1122 703 c-19 -8 -4 -23 24 -23 16 0 24 5 22 13 -5 13 -26 18 -46
10z"/>
<path d="M1211 691 c-16 -10 -6 -31 14 -31 14 0 27 24 18 34 -8 8 -15 7 -32
-3z"/>
<path d="M1181 551 c-18 -12 -5 -17 59 -25 48 -5 93 4 80 17 -11 10 -126 17
-139 8z"/>
<path d="M0 442 l0 -57 56 -45 c64 -51 122 -114 144 -156 8 -16 30 -45 48 -64
31 -34 40 -75 15 -75 -6 0 -15 -3 -19 -7 -4 -4 -18 -5 -32 -1 -18 4 -23 2 -18
-6 4 -6 13 -9 19 -5 7 3 3 -2 -7 -10 -18 -15 -8 -16 132 -16 151 0 152 0 168
25 17 26 25 167 11 182 -14 14 -46 -30 -45 -61 1 -18 -9 -47 -23 -68 -19 -29
-27 -34 -44 -28 -11 5 -28 11 -38 14 -16 5 -16 8 -3 28 18 29 28 168 12 168
-6 0 -41 25 -78 55 -38 30 -68 52 -68 49 0 -4 -20 10 -45 30 -28 23 -61 40
-87 44 -30 6 -42 13 -41 23 2 8 -10 19 -27 26 l-30 11 0 -56z"/>
<path d="M1225 486 l-29 -12 42 -17 c52 -21 48 -21 56 -1 7 18 -10 44 -28 44
-6 -1 -24 -7 -41 -14z"/>
<path d="M1120 415 c-13 -14 -19 -25 -13 -25 5 0 20 11 33 25 13 14 19 25 13
25 -5 0 -20 -11 -33 -25z"/>
<path d="M730 192 c-53 -41 -81 -74 -76 -89 3 -7 0 -13 -6 -13 -6 0 -3 -10 8
-22 18 -21 18 -21 0 -15 -14 6 -17 4 -12 -9 3 -8 6 -17 6 -19 0 -16 68 71 95
121 47 87 45 93 -15 46z"/>
<path d="M2270 177 c0 -25 24 -54 33 -40 6 11 -9 49 -22 58 -7 4 -11 -3 -11
-18z"/>
<path d="M749 72 c-66 -67 -67 -72 -20 -72 43 0 41 -2 79 93 18 42 -5 34 -59
-21z"/>
<path d="M949 87 c-5 -15 -4 -47 3 -47 4 0 8 6 8 14 0 8 5 16 12 18 7 3 6 7
-5 11 -9 3 -17 5 -18 4z"/>
<path d="M165 60 c-3 -5 1 -10 9 -10 9 0 16 5 16 10 0 6 -4 10 -9 10 -6 0 -13
-4 -16 -10z"/>
<path d="M583 3 c9 -2 25 -2 35 0 9 3 1 5 -18 5 -19 0 -27 -2 -17 -5z"/>
</g>
</svg>
